<svg width="513" height="513" viewBox="0 0 513 513" fill="none" xmlns="http://www.w3.org/2000/svg">
<path d="M393 121V425C393.001 427.101 392.587 429.182 391.783 431.124C390.979 433.065 389.801 434.829 388.315 436.315C386.829 437.801 385.065 438.979 383.124 439.783C381.182 440.587 379.101 441.001 377 441H137C134.899 441.001 132.818 440.587 130.876 439.783C128.935 438.979 127.171 437.801 125.685 436.315C124.199 434.829 123.021 433.065 122.217 431.124C121.413 429.182 120.999 427.101 121 425V121C120.999 118.899 121.413 116.818 122.217 114.876C123.021 112.935 124.199 111.171 125.685 109.685C127.171 108.199 128.935 107.021 130.876 106.217C132.818 105.413 134.899 104.999 137 105H177V121C177 125.243 178.686 129.313 181.686 132.314C184.687 135.314 188.757 137 193 137C197.243 137 201.313 135.314 204.314 132.314C207.314 129.313 209 125.243 209 121V105H241V121C241 125.243 242.686 129.313 245.686 132.314C248.687 135.314 252.757 137 257 137C261.243 137 265.313 135.314 268.314 132.314C271.314 129.313 273 125.243 273 121V105H305V121C305 125.243 306.686 129.313 309.686 132.314C312.687 135.314 316.757 137 321 137C325.243 137 329.313 135.314 332.314 132.314C335.314 129.313 337 125.243 337 121V105H377C379.101 104.999 381.182 105.413 383.124 106.217C385.065 107.021 386.829 108.199 388.315 109.685C389.801 111.171 390.979 112.935 391.783 114.876C392.587 116.818 393.001 118.899 393 121Z" fill="#FFE300"/>
<path d="M209 105V121C209 125.243 207.314 129.313 204.314 132.314C201.313 135.314 197.243 137 193 137C188.757 137 184.687 135.314 181.686 132.314C178.686 129.313 177 125.243 177 121V89C177 84.7565 178.686 80.6869 181.686 77.6863C184.687 74.6857 188.757 73 193 73C197.243 73 201.313 74.6857 204.314 77.6863C207.314 80.6869 209 84.7565 209 89V105Z" fill="#00BFFF"/>
<path d="M273 105V121C273 125.243 271.314 129.313 268.314 132.314C265.313 135.314 261.243 137 257 137C252.757 137 248.687 135.314 245.686 132.314C242.686 129.313 241 125.243 241 121V89C241 84.7565 242.686 80.6869 245.686 77.6863C248.687 74.6857 252.757 73 257 73C261.243 73 265.313 74.6857 268.314 77.6863C271.314 80.6869 273 84.7565 273 89V105Z" fill="#00BFFF"/>
<path d="M337 105V121C337 125.243 335.314 129.313 332.314 132.314C329.313 135.314 325.243 137 321 137C316.757 137 312.687 135.314 309.686 132.314C306.686 129.313 305 125.243 305 121V89C305 84.7565 306.686 80.6869 309.686 77.6863C312.687 74.6857 316.757 73 321 73C325.243 73 329.313 74.6857 332.314 77.6863C335.314 80.6869 337 84.7565 337 89V105Z" fill="#00BFFF"/>
<path d="M241 105H209" stroke="#303442" stroke-width="4" stroke-linecap="round" stroke-linejoin="round"/>
<path d="M337 105H377C379.101 104.999 381.182 105.413 383.124 106.217C385.065 107.021 386.829 108.199 388.315 109.685C389.801 111.171 390.979 112.935 391.783 114.876C392.587 116.818 393.001 118.899 393 121V425C393.001 427.101 392.587 429.182 391.783 431.124C390.979 433.065 389.801 434.829 388.315 436.315C386.829 437.801 385.065 438.979 383.124 439.783C381.182 440.587 379.101 441.001 377 441H137C134.899 441.001 132.818 440.587 130.876 439.783C128.935 438.979 127.171 437.801 125.685 436.315C124.199 434.829 123.021 433.065 122.217 431.124C121.413 429.182 120.999 427.101 121 425V121C120.999 118.899 121.413 116.818 122.217 114.876C123.021 112.935 124.199 111.171 125.685 109.685C127.171 108.199 128.935 107.021 130.876 106.217C132.818 105.413 134.899 104.999 137 105H177" stroke="#303442" stroke-width="4" stroke-linecap="round" stroke-linejoin="round"/>
<path d="M177 209H337" stroke="#303442" stroke-width="4" stroke-linecap="round" stroke-linejoin="round"/>
<path d="M177 257H337" stroke="#303442" stroke-width="4" stroke-linecap="round" stroke-linejoin="round"/>
<path d="M177 305H337" stroke="#303442" stroke-width="4" stroke-linecap="round" stroke-linejoin="round"/>
<path d="M177 353H289" stroke="#303442" stroke-width="4" stroke-linecap="round" stroke-linejoin="round"/>
<path d="M305 105H273" stroke="#303442" stroke-width="4" stroke-linecap="round" stroke-linejoin="round"/>
<path d="M273.384 105.96V121.576C273.384 125.717 271.658 129.689 268.585 132.618C265.513 135.546 261.346 137.192 257 137.192C252.655 137.192 248.488 135.546 245.415 132.618C242.342 129.689 240.616 125.717 240.616 121.576V90.3435C240.616 86.2019 242.342 82.2299 245.415 79.3014C248.488 76.3728 252.655 74.7275 257 74.7275C261.346 74.7275 265.513 76.3728 268.585 79.3014C271.658 82.2299 273.384 86.2019 273.384 90.3435V105.96Z" stroke="#303442" stroke-width="4" stroke-linecap="round" stroke-linejoin="round"/>
<path d="M208.872 105.96V121.576C208.872 125.717 207.2 129.689 204.223 132.618C201.247 135.546 197.209 137.192 193 137.192C188.79 137.192 184.753 135.546 181.777 132.618C178.8 129.689 177.128 125.717 177.128 121.576V90.3435C177.128 86.2019 178.8 82.2299 181.777 79.3014C184.753 76.3728 188.79 74.7275 193 74.7275C197.209 74.7275 201.247 76.3728 204.223 79.3014C207.2 82.2299 208.872 86.2019 208.872 90.3435V105.96Z" stroke="#303442" stroke-width="4" stroke-linecap="round" stroke-linejoin="round"/>
<path d="M336.872 105.96V121.576C336.872 125.717 335.2 129.689 332.223 132.618C329.247 135.546 325.209 137.192 321 137.192C316.79 137.192 312.753 135.546 309.777 132.618C306.8 129.689 305.128 125.717 305.128 121.576V90.3435C305.128 86.2019 306.8 82.2299 309.777 79.3014C312.753 76.3728 316.79 74.7275 321 74.7275C325.209 74.7275 329.247 76.3728 332.223 79.3014C335.2 82.2299 336.872 86.2019 336.872 90.3435V105.96Z" stroke="#303442" stroke-width="4" stroke-linecap="round" stroke-linejoin="round"/>
</svg>
