<svg width="513" height="513" viewBox="0 0 513 513" fill="none" xmlns="http://www.w3.org/2000/svg">
<path d="M392.617 120.883V424.586C392.618 426.685 392.204 428.764 391.401 430.704C390.598 432.643 389.421 434.406 387.937 435.89C386.452 437.375 384.69 438.552 382.75 439.355C380.811 440.158 378.732 440.571 376.633 440.571H136.867C134.767 440.571 132.689 440.158 130.749 439.355C128.81 438.552 127.047 437.375 125.563 435.89C124.078 434.406 122.901 432.643 122.098 430.704C121.295 428.764 120.882 426.685 120.882 424.586V120.883C120.882 118.784 121.295 116.705 122.098 114.765C122.901 112.826 124.078 111.063 125.563 109.579C127.047 108.094 128.81 106.917 130.749 106.114C132.689 105.311 134.767 104.898 136.867 104.898H176.828V120.883C176.828 125.122 178.512 129.188 181.509 132.185C184.507 135.183 188.573 136.867 192.812 136.867C197.051 136.867 201.117 135.183 204.115 132.185C207.112 129.188 208.796 125.122 208.796 120.883V104.898H240.765V120.883C240.765 125.122 242.449 129.188 245.447 132.185C248.445 135.183 252.51 136.867 256.75 136.867C260.989 136.867 265.055 135.183 268.052 132.185C271.05 129.188 272.734 125.122 272.734 120.883V104.898H304.703V120.883C304.703 125.122 306.387 129.188 309.385 132.185C312.382 135.183 316.448 136.867 320.687 136.867C324.927 136.867 328.992 135.183 331.99 132.185C334.988 129.188 336.672 125.122 336.672 120.883V104.898H376.633C378.732 104.898 380.811 105.311 382.75 106.114C384.69 106.917 386.452 108.094 387.937 109.579C389.421 111.063 390.598 112.826 391.401 114.765C392.204 116.705 392.618 118.784 392.617 120.883Z" fill="#FFE300"/>
<path d="M208.796 104.898V120.883C208.796 125.122 207.112 129.188 204.115 132.186C201.117 135.183 197.051 136.867 192.812 136.867C188.573 136.867 184.507 135.183 181.509 132.186C178.512 129.188 176.828 125.122 176.828 120.883V88.9141C176.828 84.6748 178.512 80.6091 181.509 77.6114C184.507 74.6138 188.573 72.9297 192.812 72.9297C197.051 72.9297 201.117 74.6138 204.115 77.6114C207.112 80.6091 208.796 84.6748 208.796 88.9141V104.898Z" fill="#00BFFF"/>
<path d="M272.734 104.898V120.883C272.734 125.122 271.05 129.188 268.052 132.186C265.055 135.183 260.989 136.867 256.75 136.867C252.51 136.867 248.445 135.183 245.447 132.186C242.449 129.188 240.765 125.122 240.765 120.883V88.9141C240.765 84.6748 242.449 80.6091 245.447 77.6114C248.445 74.6138 252.51 72.9297 256.75 72.9297C260.989 72.9297 265.055 74.6138 268.052 77.6114C271.05 80.6091 272.734 84.6748 272.734 88.9141V104.898Z" fill="#00BFFF"/>
<path d="M336.672 104.898V120.883C336.672 125.122 334.988 129.188 331.99 132.186C328.993 135.183 324.927 136.867 320.688 136.867C316.448 136.867 312.382 135.183 309.385 132.186C306.387 129.188 304.703 125.122 304.703 120.883V88.9141C304.703 84.6748 306.387 80.6091 309.385 77.6114C312.382 74.6138 316.448 72.9297 320.688 72.9297C324.927 72.9297 328.993 74.6138 331.99 77.6114C334.988 80.6091 336.672 84.6748 336.672 88.9141V104.898Z" fill="#00BFFF"/>
<path d="M240.765 104.898H208.796" stroke="#303442" stroke-width="4" stroke-linecap="round" stroke-linejoin="round"/>
<path d="M336.672 104.898H376.633C378.732 104.898 380.811 105.311 382.75 106.114C384.69 106.917 386.452 108.094 387.937 109.579C389.421 111.063 390.598 112.826 391.401 114.765C392.204 116.705 392.618 118.784 392.617 120.883V424.586C392.618 426.685 392.204 428.764 391.401 430.704C390.598 432.643 389.421 434.406 387.937 435.89C386.452 437.375 384.69 438.552 382.75 439.355C380.811 440.158 378.732 440.571 376.633 440.571H136.867C134.767 440.571 132.689 440.158 130.749 439.355C128.81 438.552 127.047 437.375 125.563 435.89C124.078 434.406 122.901 432.643 122.098 430.704C121.295 428.764 120.882 426.685 120.882 424.586V120.883C120.882 118.784 121.295 116.705 122.098 114.765C122.901 112.826 124.078 111.063 125.563 109.579C127.047 108.094 128.81 106.917 130.749 106.114C132.689 105.311 134.767 104.898 136.867 104.898H176.828" stroke="#303442" stroke-width="4" stroke-linecap="round" stroke-linejoin="round"/>
<path d="M176.828 208.797H336.672" stroke="#303442" stroke-width="4" stroke-linecap="round" stroke-linejoin="round"/>
<path d="M176.828 256.75H336.672" stroke="#303442" stroke-width="4" stroke-linecap="round" stroke-linejoin="round"/>
<path d="M176.828 304.703H336.672" stroke="#303442" stroke-width="4" stroke-linecap="round" stroke-linejoin="round"/>
<path d="M176.828 352.656H288.718" stroke="#303442" stroke-width="4" stroke-linecap="round" stroke-linejoin="round"/>
<path d="M304.703 104.898H272.734" stroke="#303442" stroke-width="4" stroke-linecap="round" stroke-linejoin="round"/>
<path d="M273.118 105.858V121.459C273.118 125.596 271.393 129.564 268.324 132.49C265.254 135.416 261.091 137.059 256.75 137.059C252.409 137.059 248.246 135.416 245.176 132.49C242.106 129.564 240.382 125.596 240.382 121.459V90.257C240.382 86.1194 242.106 82.1513 245.176 79.2256C248.246 76.2999 252.409 74.6562 256.75 74.6562C261.091 74.6562 265.254 76.2999 268.324 79.2256C271.393 82.1513 273.118 86.1194 273.118 90.257V105.858Z" stroke="#303442" stroke-width="4" stroke-linecap="round" stroke-linejoin="round"/>
<path d="M208.669 105.858V121.459C208.669 125.596 206.998 129.564 204.024 132.49C201.051 135.416 197.017 137.059 192.812 137.059C188.607 137.059 184.574 135.416 181.6 132.49C178.626 129.564 176.956 125.596 176.956 121.459V90.257C176.956 86.1194 178.626 82.1513 181.6 79.2256C184.574 76.2999 188.607 74.6562 192.812 74.6562C197.017 74.6562 201.051 76.2999 204.024 79.2256C206.998 82.1513 208.669 86.1194 208.669 90.257V105.858Z" stroke="#303442" stroke-width="4" stroke-linecap="round" stroke-linejoin="round"/>
<path d="M336.544 105.858V121.459C336.544 125.596 334.873 129.564 331.899 132.49C328.926 135.416 324.892 137.059 320.687 137.059C316.482 137.059 312.448 135.416 309.475 132.49C306.501 129.564 304.831 125.596 304.831 121.459V90.257C304.831 86.1194 306.501 82.1513 309.475 79.2256C312.448 76.2999 316.482 74.6562 320.687 74.6562C324.892 74.6562 328.926 76.2999 331.899 79.2256C334.873 82.1513 336.544 86.1194 336.544 90.257V105.858Z" stroke="#303442" stroke-width="4" stroke-linecap="round" stroke-linejoin="round"/>
</svg>
